<?xml version="1.0" encoding="UTF-8" standalone="no"?>
<svg
   xmlns:dc="http://purl.org/dc/elements/1.1/"
   xmlns:cc="http://creativecommons.org/ns#"
   xmlns:rdf="http://www.w3.org/1999/02/22-rdf-syntax-ns#"
   xmlns:svg="http://www.w3.org/2000/svg"
   xmlns="http://www.w3.org/2000/svg"
   xmlns:sodipodi="http://sodipodi.sourceforge.net/DTD/sodipodi-0.dtd"
   xmlns:inkscape="http://www.inkscape.org/namespaces/inkscape"
   t="1622635981358"
   class="icon"
   viewBox="0 0 1024 1024"
   version="1.1"
   p-id="10619"
   width="200"
   height="200"
   id="svg871"
   sodipodi:docname="next.svg"
   inkscape:version="0.92.4 (5da689c313, 2019-01-14)">
  <metadata
     id="metadata875">
    <rdf:RDF>
      <cc:Work
         rdf:about="">
        <dc:format>image/svg+xml</dc:format>
        <dc:type
           rdf:resource="http://purl.org/dc/dcmitype/StillImage" />
        <dc:title></dc:title>
      </cc:Work>
    </rdf:RDF>
  </metadata>
  <sodipodi:namedview
     pagecolor="#ffffff"
     bordercolor="#666666"
     borderopacity="1"
     objecttolerance="10"
     gridtolerance="10"
     guidetolerance="10"
     inkscape:pageopacity="0"
     inkscape:pageshadow="2"
     inkscape:window-width="1280"
     inkscape:window-height="692"
     id="namedview873"
     showgrid="false"
     inkscape:object-nodes="true"
     inkscape:snap-nodes="true"
     inkscape:snap-others="true"
     inkscape:zoom="1.7084915"
     inkscape:cx="99.861571"
     inkscape:cy="88.419008"
     inkscape:window-x="0"
     inkscape:window-y="0"
     inkscape:window-maximized="1"
     inkscape:current-layer="svg871" />
  <defs
     id="defs865">
    <style
       type="text/css"
       id="style863" />
  </defs>
  <path
     style="color:#000000;font-style:normal;font-variant:normal;font-weight:normal;font-stretch:normal;font-size:medium;line-height:normal;font-family:sans-serif;font-variant-ligatures:normal;font-variant-position:normal;font-variant-caps:normal;font-variant-numeric:normal;font-variant-alternates:normal;font-feature-settings:normal;text-indent:0;text-align:start;text-decoration:none;text-decoration-line:none;text-decoration-style:solid;text-decoration-color:#000000;letter-spacing:normal;word-spacing:normal;text-transform:none;writing-mode:lr-tb;direction:ltr;text-orientation:mixed;dominant-baseline:auto;baseline-shift:baseline;text-anchor:start;white-space:normal;shape-padding:0;clip-rule:nonzero;display:inline;overflow:visible;visibility:visible;opacity:1;isolation:auto;mix-blend-mode:normal;color-interpolation:sRGB;color-interpolation-filters:linearRGB;solid-color:#000000;solid-opacity:1;vector-effect:none;fill-opacity:0.99604744;fill-rule:nonzero;stroke:none;stroke-width:1.27148712;stroke-linecap:butt;stroke-linejoin:miter;stroke-miterlimit:4;stroke-dasharray:none;stroke-dashoffset:0;stroke-opacity:1;color-rendering:auto;image-rendering:auto;shape-rendering:auto;text-rendering:auto;enable-background:accumulate;fill:#ffffff"
     d="m 513.1423,220.16033 c -14.16491,0 -28.33112,5.15359 -39.12934,15.46058 -21.61369,20.60476 -21.61366,54.04295 0,74.64896 l 156.17037,148.94337 -370.04122,0.0149 c -30.29367,0 -54.87235,23.236 -55.30227,52.02922 l -0.0398,-0.009 v 0.76644 c 0,29.14649 24.78924,52.78719 55.34206,52.78719 l 370.04785,-0.0149 -156.177,148.93276 c -21.61478,20.60606 -21.61452,54.0492 -0.009,74.65532 10.80681,10.30685 24.97757,15.46483 39.13598,15.46483 14.15844,0 28.32266,-5.15862 39.12934,-15.45633 L 802.63051,549.64125 c 0.0163,-0.0156 0.14556,-0.0802 0.34039,-0.26752 l 0.002,-0.002 c 8.1126,-7.73558 13.18037,-17.27839 15.2026,-27.2715 3.39883,-16.65149 -1.66169,-34.56541 -15.17607,-47.45601 -0.28182,-0.27061 -0.52295,-0.39436 -0.641,-0.50318 l 0.007,0.009 L 552.26944,235.62091 C 541.47122,225.31392 527.30721,220.16033 513.1423,220.16033 Z m 0,1.24203 c 13.83214,0 27.66276,5.03448 38.21207,15.10389 l 250.10024,238.53062 0.005,0.004 c 0.28164,0.25965 0.51343,0.37856 0.62331,0.48406 13.20462,12.59372 18.13869,30.07719 14.82021,46.33501 v 0.002 c -1.97448,9.7572 -6.91969,19.0704 -14.84674,26.62819 l -0.002,0.002 c -0.0134,0.013 -0.14147,0.0778 -0.33818,0.26539 l -250.3589,238.74274 v -0.002 c -10.55816,10.06092 -24.38587,15.0954 -38.21648,15.0954 -13.83065,0 -27.6629,-5.0322 -38.22091,-15.10177 -21.10799,-20.13146 -21.10816,-52.75739 0.009,-72.88889 L 633.33835,563.54128 260.143,563.55617 c -29.85653,0 -54.04461,-23.0728 -54.04459,-51.5409 0,-28.4682 24.17865,-51.5409 54.04459,-51.5409 l 373.18851,-0.0149 -158.4028,-151.07498 c -21.11599,-20.13156 -21.11597,-52.748 0,-72.87829 10.54931,-10.06941 24.38214,-15.10388 38.21427,-15.10388 z"
     id="path869"
     inkscape:connector-curvature="0" />
  <path
     style="opacity:1;fill:#ffffff;fill-opacity:0.99604744;stroke:#795548;stroke-width:0.05853117;stroke-miterlimit:4;stroke-dasharray:none;stroke-opacity:1;paint-order:normal"
     d="m 94.673857,154.82712 c -4.601436,-2.75814 -6.1904,-9.13844 -3.265052,-13.11043 0.613258,-0.83268 8.133103,-8.23041 16.710765,-16.43941 l 15.59576,-14.92544 -37.885449,-0.29266 c -40.287271,-0.31121 -38.945915,-0.21117 -42.184577,-3.14603 -2.01783,-1.82854 -3.017273,-4.09193 -3.017273,-6.83307 0,-3.375902 1.521856,-6.238051 4.291743,-8.071464 L 47.272628,90.451241 85.606012,90.158585 123.9394,89.865929 107.77021,74.441369 C 90.414842,57.885239 89.199991,56.342273 90.03124,51.911331 c 0.514384,-2.741903 2.574699,-5.640178 5.028027,-7.072998 2.758527,-1.611067 7.856633,-1.626669 10.339963,-0.03165 2.87913,1.84925 51.27372,48.275516 52.72712,50.582577 1.43647,2.280193 1.68296,5.25954 0.67448,8.15246 -0.79476,2.27983 -51.36383,50.7483 -54.2087,51.95691 -3.01896,1.28257 -7.12167,1.0048 -9.918273,-0.67151 z"
     id="path4587"
     inkscape:connector-curvature="0"
     transform="scale(5.12)" />
  <path
     style="opacity:1;fill:#ffffff;fill-opacity:0.99604744;stroke:#795548;stroke-width:0.05853117;stroke-miterlimit:4;stroke-dasharray:none;stroke-opacity:1;paint-order:normal"
     d="m 97.424646,155.62978 c -4.634599,-1.37132 -7.045124,-4.67082 -7.045124,-9.6433 v -2.81902 l 9.803968,-9.68355 c 5.39219,-5.32596 12.89881,-12.68353 16.68138,-16.35015 3.78258,-3.66664 6.87742,-6.71641 6.87742,-6.77729 0,-0.0609 -16.26435,-0.30595 -36.142999,-0.54461 C 67.720644,109.5732 50.193068,109.17604 48.649122,108.92929 40.321756,107.59843 38.097018,96.889762 45.180518,92.233334 l 2.178597,-1.432129 38.191586,-0.413309 c 21.005369,-0.227321 38.190509,-0.569453 38.189189,-0.760294 -0.001,-0.190841 -6.47997,-6.516 -14.397,-14.055909 C 92.60107,59.627359 90.379522,57.003129 90.379522,53.170995 c 0,-2.933492 1.528264,-5.691269 4.28643,-7.734933 2.466792,-1.82777 8.826498,-1.749257 11.238638,0.138745 2.8624,2.240426 25.98044,24.177392 39.95142,37.910346 l 13.04139,12.819205 -0.0182,3.443877 -0.0182,3.443875 -4.21404,4.45783 c -10.03159,10.61195 -45.3027,44.14031 -49.04932,46.62581 -2.5021,1.65988 -5.47483,2.15238 -8.172982,1.35403 z"
     id="path4589"
     inkscape:connector-curvature="0"
     transform="scale(5.12)" />
</svg>
